<svg width="797" height="746" viewBox="0 0 797 746" fill="none" xmlns="http://www.w3.org/2000/svg">
<path d="M257.8 701C237 710.867 222.667 715.8 214.8 715.8C209.867 715.8 202.267 710.533 192 700C181.867 689.6 170.333 676.867 157.4 661.8C148.467 665.267 139.933 667 131.8 667C117.667 667 105.133 663.667 94.2 657C83.4 650.2 75 640.8 69 628.8C63 616.8 60 603.2 60 588C60 572.4 64.5333 558 73.6 544.8C82.6667 531.467 93.9333 521 107.4 513.4C120.867 505.667 133.733 501.8 146 501.8C160.133 501.8 172.6 505.2 183.4 512C194.333 518.8 202.8 528.2 208.8 540.2C214.8 552.2 217.8 565.8 217.8 581C217.8 596.333 213.4 610.533 204.6 623.6C195.8 636.667 184.667 647.133 171.2 655C183.733 664.467 195.467 673 206.4 680.6C217.467 688.2 224.2 692 226.6 692H253.6L257.8 701ZM87.2 578.4C87.2 591.467 89.2667 603.467 93.4 614.4C97.5333 625.2 103.8 633.867 112.2 640.4C120.733 646.933 131.2 650.2 143.6 650.2C152.4 650.2 160.4 647.667 167.6 642.6C174.933 637.4 180.667 630.267 184.8 621.2C188.933 612 191 601.733 191 590.4C191 577.2 188.933 565.2 184.8 554.4C180.667 543.467 174.4 534.8 166 528.4C157.6 521.867 147.133 518.6 134.6 518.6C125.8 518.6 117.733 521.2 110.4 526.4C103.2 531.467 97.5333 538.6 93.4 547.8C89.2667 556.867 87.2 567.067 87.2 578.4ZM350.542 663H312.542V642.2L287.142 663.4C284.342 664.467 280.676 665 276.142 665C267.076 665 259.876 662.267 254.542 656.8C249.209 651.2 246.542 643.667 246.542 634.2V586.4L228.742 576V569.8L262.942 553H270.542V624.2C270.542 631.533 271.676 636.667 273.942 639.6C276.209 642.533 280.276 644 286.142 644C290.276 644 294.342 643.267 298.342 641.8C302.342 640.2 307.076 637.133 312.542 632.6V586.4L294.742 576V569.8L328.942 553H336.542V648L354.542 655L350.542 663ZM418.386 663H362.586V656.8L380.386 642.8V584.4L362.586 572V565.8L396.786 553H404.386V648L422.386 655L418.386 663ZM391.586 493C395.586 493 398.853 494.467 401.386 497.4C404.053 500.333 405.386 504 405.386 508.4C405.386 511.467 404.453 514.4 402.586 517.2C400.719 519.867 398.386 522 395.586 523.6C392.786 525.2 390.053 526 387.386 526C383.386 526 380.053 524.533 377.386 521.6C374.853 518.667 373.586 515 373.586 510.6C373.586 507.533 374.519 504.667 376.386 502C378.253 499.2 380.586 497 383.386 495.4C386.186 493.8 388.919 493 391.586 493ZM535.92 563L485.32 663H470.12L438.92 586.8L420.32 576V569.8L454.52 553L462.12 583.2L486.52 642.8L514.72 584.2L488.12 564.8L492.12 556.8H535.92V563ZM606.489 663.4C601.156 664.467 594.756 665 587.289 665C578.489 665 570.556 662.733 563.489 658.2C556.556 653.533 551.089 647.267 547.089 639.4C543.222 631.533 541.289 622.867 541.289 613.4C541.289 603.133 544.422 593.533 550.689 584.6C556.956 575.533 564.756 568.333 574.089 563C583.556 557.533 592.689 554.8 601.489 554.8C614.156 554.8 623.956 559.8 630.889 569.8C637.956 579.8 641.489 593 641.489 609.4H567.489C568.289 620.733 571.356 630 576.689 637.2C582.156 644.4 589.556 648 598.889 648C607.556 648 619.889 641.267 635.889 627.8L641.889 635.4L606.489 663.4ZM589.889 571.6C575.489 571.6 567.956 581.467 567.289 601.2H614.089C612.889 594 611.622 588.533 610.289 584.8C609.089 580.933 606.889 577.8 603.689 575.4C600.622 572.867 596.022 571.6 589.889 571.6ZM729.005 555C733.405 555 737.271 556.2 740.605 558.6C743.938 561 746.538 564.333 748.405 568.6L735.205 585.2H727.605C727.071 581.867 726.071 579.533 724.605 578.2C723.271 576.733 721.405 576 719.005 576C716.071 576 712.938 576.8 709.605 578.4C706.405 579.867 702.738 582.733 698.605 587V646.6L726.605 655.2L722.605 663.2H656.805V657L674.605 643V586.4L656.805 576V569.8L691.005 553L697.205 577.6L718.005 556.4C720.805 555.333 724.471 554.8 729.005 554.8V555Z" fill="black"/>
<path fill-rule="evenodd" clip-rule="evenodd" d="M393.11 36.9351C395.528 30.4751 400.196 27.3716 403.76 29.8532C405.275 30.9074 407.859 35.0509 408.861 38.0312C409.266 39.2348 409.677 47.7296 409.891 59.3309L410.248 78.6282L435.482 60.7067C452.987 48.2749 461.383 42.6619 462.888 42.3811C465.716 41.854 468.771 43.2842 470.363 45.8803C471.837 48.2828 471.891 51.2421 470.679 63.4518C470.187 68.4057 469.084 79.8902 468.228 88.9721C466.239 110.057 464.424 122.508 461.315 136.409C456.104 159.712 452.827 170.686 449.212 176.932C446.071 182.361 441 186.558 414.346 205.785L409.381 209.366L409.361 247.549C409.35 268.549 409.52 291.45 409.739 298.439L410.136 311.145L413.818 311.129C417.794 311.113 429.324 310.098 429.692 309.733C429.933 309.468 436.526 279.046 436.529 278.183C436.529 277.916 432.388 277.504 427.329 277.27C422.27 277.036 418.053 276.768 417.957 276.674C417.862 276.581 417.966 272.949 418.187 268.604L418.589 260.705L421.97 260.714C423.829 260.719 428.59 260.991 432.548 261.316C436.507 261.642 439.816 261.84 439.899 261.757C440.194 261.415 448.608 221.037 448.612 219.942C448.612 219.352 445.865 214.862 442.507 209.963C436.544 201.262 436.431 201.035 437.62 200.107C438.288 199.584 440.726 197.603 443.036 195.705C445.346 193.806 447.386 192.251 447.569 192.251C447.753 192.253 449.195 194.077 450.774 196.305C454.302 201.284 453.994 200.913 454.337 200.571C454.679 200.201 464.396 162.371 468.273 146.316C471.226 134.09 476.15 109.713 476.764 104.283C476.988 102.301 477.44 100.342 477.768 99.9295C479.253 98.0588 482.674 99.7489 484.486 103.249C485.81 105.807 487.798 112.943 488.246 116.742C488.469 118.641 488.764 120.195 488.9 120.195C489.045 120.19 498.587 114.958 510.113 108.566C521.645 102.169 531.771 96.7739 532.615 96.5759C535.881 95.8102 540.008 99.8771 540 103.852C539.996 105.086 535.463 120.949 529.925 139.11C518.558 176.385 516.935 181.328 514.309 186.681L512.447 190.479L492.764 202.67C481.938 209.375 471.819 215.578 470.275 216.455C467.584 217.983 467.441 218.201 466.795 221.812C466.425 223.883 464.521 234.224 462.563 244.792C460.605 255.36 459.051 264.059 459.109 264.122C459.175 264.187 462.474 264.962 466.448 265.846C489.069 270.879 501.707 279.383 502.782 290.292C503.152 294.064 497.392 335.549 487.881 397.612C487.025 403.196 484.362 421.208 481.603 440H464.359C468.715 409.987 469.387 404.237 468.612 404.558C435.712 418.169 369.787 419.225 334.438 406.707C331.622 405.71 329.228 404.982 329.116 405.089C329.004 405.201 331.153 420.763 333.897 440H316.526C310.157 396.852 305.048 361.73 301.803 338.766C299.167 320.108 296.733 302.951 296.396 300.637C295.319 293.264 295.572 288.934 297.277 285.535C301.648 276.818 313.799 270.116 333.085 265.784C336.559 265.004 339.499 264.271 339.617 264.153C339.816 263.942 335.563 240.261 332.489 224.464L331.102 217.346L316.659 208.704C308.715 203.95 298.454 197.738 293.857 194.9L285.499 189.738L282.775 184.33C279.843 178.509 277.194 170.582 264.953 131.004C260.613 116.969 257.035 104.378 257.002 103.025C256.933 100.154 258.342 97.6981 260.777 96.4467C264.174 94.7005 261.876 93.6725 293.301 110.995C303.056 116.372 311.11 120.773 311.236 120.796C311.321 120.796 311.244 119.894 311.064 118.792C310.031 112.462 316.796 96.1529 320.441 96.1865C322.438 96.205 322.88 97.2362 324.108 104.744C324.796 108.952 325.899 114.894 326.559 117.948C327.219 121.001 328.457 127.282 329.309 131.905C330.162 136.529 331.681 143.69 332.685 147.818C333.689 151.946 335.702 160.998 337.157 167.933C340.272 182.769 344.267 199.459 344.696 199.425C344.863 199.41 345.895 197.994 346.99 196.277C348.086 194.56 349.474 192.509 350.075 191.721L351.167 190.288L361.533 198.059L349.412 217.945L353.677 237.43C356.023 248.147 358.128 258.072 358.356 259.486L358.77 262.056L362.155 261.683C364.016 261.478 369.413 261.132 374.148 260.914L382.758 260.518V276.696L373.1 277.299C367.789 277.631 363.301 278.043 363.126 278.216C362.867 278.473 369.307 309.31 369.718 309.781C369.984 310.071 383.848 311.135 387.44 311.14L391.216 311.145V266.803C391.216 242.416 391.392 219.237 391.605 215.293L391.993 208.123L382.771 201.906C371.036 193.997 359.635 185.611 356.287 182.424C348.562 175.071 344.292 162.261 337.146 125C334.244 109.871 333.406 103.782 331.394 83.2677C328.095 49.6191 328.041 48.7365 329.154 46.6083C330.687 43.679 332.916 42.0207 335.748 41.7038C337.977 41.4544 338.788 41.7065 341.373 43.451C343.815 45.0987 368.541 62.3589 387.375 75.5625C389.414 76.9926 391.242 78.1636 391.437 78.1636C391.631 78.1514 391.791 69.6674 391.793 59.3014C391.798 41.4229 391.865 40.259 393.11 36.9351ZM476.112 358.791C476.391 357.525 476.321 357.533 472.323 359.199C445.664 370.306 400.974 374.187 362.519 368.736C350.769 367.07 341.652 364.976 331.404 361.589C326.586 359.996 322.578 358.754 322.498 358.83C322.419 358.907 323.167 364.758 324.16 371.833C326.261 386.798 325.498 385.55 334.727 389.144C344.778 393.059 359.433 396.178 374.3 397.567C378.121 397.925 382.2 398.307 383.363 398.418C388.323 398.893 408.471 398.764 415.988 398.209C432.182 397.013 445.899 394.601 457.675 390.881C465.44 388.429 472.138 385.104 472.483 383.531C472.631 382.855 473.444 377.301 474.29 371.192C475.135 365.082 475.955 359.501 476.112 358.791ZM319.713 316.136C318.102 315.328 316.659 314.792 316.507 314.944C316.356 315.106 316.999 320.457 317.939 326.843L319.65 338.467L325.98 341.598C337.866 347.476 356.697 351.921 377.321 353.715C385.57 354.433 409.656 354.47 417.8 353.779C442.24 351.703 463.885 346.371 475.927 339.461L479.094 337.644L480.769 326.395C481.69 320.208 482.367 315.07 482.275 314.978C482.178 314.888 479.801 315.731 476.99 316.853C465.718 321.349 449.548 325.014 431.696 327.12C420.775 328.408 387.524 328.932 375.658 328.003C353.238 326.248 330.09 321.339 319.713 316.136ZM343.242 280.678C342.877 280.314 336.886 281.586 330.969 283.284C324.716 285.078 318.735 287.868 316.304 290.125C314.512 291.789 314.467 291.947 315.305 293.551C317.531 297.811 327.006 302.167 341.092 305.405C348.719 307.158 348.322 307.115 348.315 306.191C348.306 304.982 343.535 280.99 343.242 280.678ZM468.705 283.308C463.553 281.691 456.06 280.129 455.603 280.578C455.457 280.723 454.367 285.971 453.181 292.24C451.996 298.508 450.869 304.38 450.678 305.29C450.262 307.258 450.028 307.24 456.467 305.722C470.48 302.418 481.786 297.268 483.57 293.376C484.229 291.939 484.112 291.634 482.224 289.865C479.73 287.527 475.3 285.379 468.705 283.308ZM507.979 157.426C507.815 157.426 501.663 161.167 494.308 165.741C486.955 170.314 480.413 174.338 479.763 174.686C478.896 175.151 477.833 177.948 475.685 185.434C474.087 191 472.781 195.909 472.78 196.341C472.779 197.288 471.481 198.007 486.977 188.466C493.952 184.171 499.859 180.487 500.106 180.278C500.67 179.799 508.368 157.453 507.979 157.426ZM292.368 165.329C293.83 169.403 295.598 174.234 296.296 176.064L297.563 179.391L311.311 187.87C318.873 192.534 325.265 196.374 325.514 196.403C325.763 196.432 325.969 196.253 325.973 196.006C325.978 195.758 324.99 191.19 323.779 185.856C321.93 177.718 321.369 176.066 320.287 175.576C319.168 175.069 297.197 162.42 291.676 159.104L289.709 157.921L292.368 165.329ZM435.785 153.724C427.574 158.72 416.721 165.524 413.42 167.743L409.945 170.079V188.711L412.212 187.029C413.458 186.104 417.331 183.15 420.82 180.466C428.966 174.199 432.007 171.121 434.087 167.032C435.706 163.85 438.393 156.497 439.189 153.071L439.574 151.419L435.785 153.724ZM361.008 151.705C361.008 153.128 364.519 163.245 366.065 166.278C367.99 170.054 373.217 174.874 383.378 182.246L391.518 188.153L391.687 179.282C391.812 172.676 391.657 170.229 391.082 169.7C388.922 167.712 361.012 151.011 361.008 151.705ZM280.744 120.464C278.302 119.005 276.426 118.147 276.577 118.555C276.729 118.966 278.28 123.567 280.023 128.784C282.98 137.634 283.341 138.369 285.398 139.712C288.171 141.522 316.489 157.941 316.922 157.99C317.097 158.008 316.146 153.667 314.807 148.343L312.373 138.66L298.78 130.888C291.303 126.613 283.187 121.922 280.744 120.464ZM517.279 129.144C520.811 118.658 520.991 117.847 519.513 119.071C518.965 119.525 511.443 124.103 502.797 129.245L487.075 138.595L485.091 146.959C484 151.559 483.096 155.777 483.08 156.331C483.059 157.045 487.587 154.575 498.607 147.865L514.164 138.392L517.279 129.144ZM450.696 104.052C450.54 103.897 449.668 104.46 448.758 105.302C447.05 106.882 424.513 124.124 415.206 130.973L409.945 134.843V151.558L411.306 150.682C412.055 150.2 416.744 147.238 421.728 144.099C426.712 140.961 434.098 136.319 438.143 133.785C445.407 129.233 445.505 129.141 446.135 126.337C449.354 111.999 450.93 104.299 450.696 104.052ZM350.665 105.191C350.256 105.183 351.655 112.453 354.109 123.076C355.138 127.529 356.022 130.058 356.681 130.439C357.235 130.76 365.139 135.611 374.246 141.22C383.354 146.83 391.035 151.42 391.314 151.42C391.593 151.416 391.821 147.674 391.821 143.102V134.783L379.285 125.71C372.39 120.72 363.214 114.062 358.894 110.916C354.576 107.772 350.874 105.197 350.665 105.191ZM343.836 65.6292C343.723 65.7525 344.11 68.8263 344.696 72.4591C345.282 76.0918 345.945 80.3398 346.17 81.8984L346.578 84.7318L358.778 93.7114C370.976 102.69 390.75 117.044 391.065 117.149C391.149 117.173 391.209 112.938 391.2 107.736L391.185 98.2789L378.089 89.2715C370.887 84.3178 360.28 76.9219 354.518 72.8354C348.758 68.7505 343.952 65.5084 343.836 65.6292ZM456.826 65.711C456.6 65.4903 452.331 68.4443 421.888 89.8833L409.966 98.2789L409.957 107.471C409.95 114.668 410.111 116.565 410.702 116.21C411.12 115.96 413.904 114.004 416.894 111.864C423.428 107.184 452.983 85.3941 453.531 84.8512C454.005 84.3773 457.162 66.0443 456.826 65.711Z" fill="black"/>
</svg>
